<?xml version="1.0" encoding="UTF-8" standalone="no"?>
<!-- Created with Inkscape (http://www.inkscape.org/) -->

<svg
   xmlns:dc="http://purl.org/dc/elements/1.1/"
   xmlns:cc="http://creativecommons.org/ns#"
   xmlns:rdf="http://www.w3.org/1999/02/22-rdf-syntax-ns#"
   xmlns:svg="http://www.w3.org/2000/svg"
   xmlns="http://www.w3.org/2000/svg"
   xmlns:xlink="http://www.w3.org/1999/xlink"
   xmlns:sodipodi="http://sodipodi.sourceforge.net/DTD/sodipodi-0.dtd"
   xmlns:inkscape="http://www.inkscape.org/namespaces/inkscape"
   id="svg2"
   version="1.1"
   inkscape:version="0.48.2 r9819"
   width="177.16534"
   height="47.125984"
   xml:space="preserve"
   sodipodi:docname="filtbank_logo.svg"
   inkscape:export-filename="D:\development\filterbank\docs\filtbank_logo.png"
   inkscape:export-xdpi="90.143997"
   inkscape:export-ydpi="90.143997"><metadata
     id="metadata8"><rdf:RDF><cc:Work
         rdf:about=""><dc:format>image/svg+xml</dc:format><dc:type
           rdf:resource="http://purl.org/dc/dcmitype/StillImage" /><dc:title /></cc:Work></rdf:RDF></metadata><defs
     id="defs6"><linearGradient
       id="linearGradient4224"><stop
         style="stop-color:#d1d1d1;stop-opacity:1;"
         offset="0"
         id="stop4226" /><stop
         id="stop4236"
         offset="0.1487513"
         style="stop-color:#737373;stop-opacity:1" /><stop
         id="stop4234"
         offset="0.79644442"
         style="stop-color:#bbbbbb;stop-opacity:1" /><stop
         id="stop4232"
         offset="1"
         style="stop-color:#8c8c8c;stop-opacity:1;" /></linearGradient><inkscape:perspective
       sodipodi:type="inkscape:persp3d"
       inkscape:vp_x="0 : 41.269531 : 1"
       inkscape:vp_y="0 : 1000 : 0"
       inkscape:vp_z="312.5 : 41.269531 : 1"
       inkscape:persp3d-origin="156.25 : 27.513021 : 1"
       id="perspective4194" /><linearGradient
       id="linearGradient5910"><stop
         style="stop-color:#f10000;stop-opacity:1;"
         offset="0"
         id="stop5912" /><stop
         id="stop5940"
         offset="0.07037502"
         style="stop-color:#e83102;stop-opacity:0.99607843;" /><stop
         id="stop5938"
         offset="0.19419283"
         style="stop-color:#df6305;stop-opacity:0.99607843;" /><stop
         id="stop5936"
         offset="0.33083189"
         style="stop-color:#ceaa0a;stop-opacity:0.99607843;" /><stop
         id="stop5934"
         offset="0.41911569"
         style="stop-color:#abe115;stop-opacity:0.99607843;" /><stop
         id="stop5932"
         offset="0.50524163"
         style="stop-color:#66e72b;stop-opacity:0.99215686;" /><stop
         id="stop5930"
         offset="0.57060796"
         style="stop-color:#18dd56;stop-opacity:0.98431373;" /><stop
         id="stop5928"
         offset="0.6807856"
         style="stop-color:#0cc9ad;stop-opacity:0.96862745;" /><stop
         id="stop5926"
         offset="0.76547837"
         style="stop-color:#18a1ee;stop-opacity:0.9372549;" /><stop
         id="stop5924"
         offset="0.87525469"
         style="stop-color:#3152f1;stop-opacity:1;" /><stop
         id="stop5920"
         offset="1"
         style="stop-color:#6316f2;stop-opacity:1;" /></linearGradient><linearGradient
       id="linearGradient5755"><stop
         style="stop-color:#000000;stop-opacity:1;"
         offset="0"
         id="stop5757" /><stop
         style="stop-color:#000000;stop-opacity:0;"
         offset="1"
         id="stop5759" /></linearGradient><clipPath
       clipPathUnits="userSpaceOnUse"
       id="clipPath22"><path
         d="m 72,388.801 446.398,0 0,-345.602 -446.398,0 0,345.602 z"
         id="path24"
         inkscape:connector-curvature="0" /></clipPath><clipPath
       clipPathUnits="userSpaceOnUse"
       id="clipPath30"><path
         d="M 0,0 576,0 576,432 0,432 0,0 z"
         id="path32"
         inkscape:connector-curvature="0" /></clipPath><clipPath
       clipPathUnits="userSpaceOnUse"
       id="clipPath46"><path
         d="M 0,0 576,0 576,432 0,432 0,0 z"
         id="path48"
         inkscape:connector-curvature="0" /></clipPath><clipPath
       clipPathUnits="userSpaceOnUse"
       id="clipPath62"><path
         d="M 0,0 576,0 576,432 0,432 0,0 z"
         id="path64"
         inkscape:connector-curvature="0" /></clipPath><clipPath
       clipPathUnits="userSpaceOnUse"
       id="clipPath78"><path
         d="M 0,0 576,0 576,432 0,432 0,0 z"
         id="path80"
         inkscape:connector-curvature="0" /></clipPath><clipPath
       clipPathUnits="userSpaceOnUse"
       id="clipPath94"><path
         d="M 0,0 576,0 576,432 0,432 0,0 z"
         id="path96"
         inkscape:connector-curvature="0" /></clipPath><clipPath
       clipPathUnits="userSpaceOnUse"
       id="clipPath110"><path
         d="M 0,0 576,0 576,432 0,432 0,0 z"
         id="path112"
         inkscape:connector-curvature="0" /></clipPath><clipPath
       clipPathUnits="userSpaceOnUse"
       id="clipPath126"><path
         d="M 0,0 576,0 576,432 0,432 0,0 z"
         id="path128"
         inkscape:connector-curvature="0" /></clipPath><clipPath
       clipPathUnits="userSpaceOnUse"
       id="clipPath142"><path
         d="M 0,0 576,0 576,432 0,432 0,0 z"
         id="path144"
         inkscape:connector-curvature="0" /></clipPath><clipPath
       clipPathUnits="userSpaceOnUse"
       id="clipPath158"><path
         d="M 0,0 576,0 576,432 0,432 0,0 z"
         id="path160"
         inkscape:connector-curvature="0" /></clipPath><clipPath
       clipPathUnits="userSpaceOnUse"
       id="clipPath174"><path
         d="M 0,0 576,0 576,432 0,432 0,0 z"
         id="path176"
         inkscape:connector-curvature="0" /></clipPath><clipPath
       clipPathUnits="userSpaceOnUse"
       id="clipPath190"><path
         d="M 0,0 576,0 576,432 0,432 0,0 z"
         id="path192"
         inkscape:connector-curvature="0" /></clipPath><clipPath
       clipPathUnits="userSpaceOnUse"
       id="clipPath206"><path
         d="M 0,0 576,0 576,432 0,432 0,0 z"
         id="path208"
         inkscape:connector-curvature="0" /></clipPath><clipPath
       clipPathUnits="userSpaceOnUse"
       id="clipPath222"><path
         d="M 0,0 576,0 576,432 0,432 0,0 z"
         id="path224"
         inkscape:connector-curvature="0" /></clipPath><clipPath
       clipPathUnits="userSpaceOnUse"
       id="clipPath238"><path
         d="M 0,0 576,0 576,432 0,432 0,0 z"
         id="path240"
         inkscape:connector-curvature="0" /></clipPath><clipPath
       clipPathUnits="userSpaceOnUse"
       id="clipPath254"><path
         d="M 0,0 576,0 576,432 0,432 0,0 z"
         id="path256"
         inkscape:connector-curvature="0" /></clipPath><clipPath
       clipPathUnits="userSpaceOnUse"
       id="clipPath270"><path
         d="M 0,0 576,0 576,432 0,432 0,0 z"
         id="path272"
         inkscape:connector-curvature="0" /></clipPath><clipPath
       clipPathUnits="userSpaceOnUse"
       id="clipPath286"><path
         d="M 0,0 576,0 576,432 0,432 0,0 z"
         id="path288"
         inkscape:connector-curvature="0" /></clipPath><clipPath
       clipPathUnits="userSpaceOnUse"
       id="clipPath302"><path
         d="M 0,0 576,0 576,432 0,432 0,0 z"
         id="path304"
         inkscape:connector-curvature="0" /></clipPath><clipPath
       clipPathUnits="userSpaceOnUse"
       id="clipPath318"><path
         d="M 0,0 576,0 576,432 0,432 0,0 z"
         id="path320"
         inkscape:connector-curvature="0" /></clipPath><clipPath
       clipPathUnits="userSpaceOnUse"
       id="clipPath334"><path
         d="M 0,0 576,0 576,432 0,432 0,0 z"
         id="path336"
         inkscape:connector-curvature="0" /></clipPath><clipPath
       clipPathUnits="userSpaceOnUse"
       id="clipPath350"><path
         d="M 0,0 576,0 576,432 0,432 0,0 z"
         id="path352"
         inkscape:connector-curvature="0" /></clipPath><clipPath
       clipPathUnits="userSpaceOnUse"
       id="clipPath366"><path
         d="M 0,0 576,0 576,432 0,432 0,0 z"
         id="path368"
         inkscape:connector-curvature="0" /></clipPath><clipPath
       clipPathUnits="userSpaceOnUse"
       id="clipPath382"><path
         d="M 0,0 576,0 576,432 0,432 0,0 z"
         id="path384"
         inkscape:connector-curvature="0" /></clipPath><clipPath
       clipPathUnits="userSpaceOnUse"
       id="clipPath398"><path
         d="M 0,0 576,0 576,432 0,432 0,0 z"
         id="path400"
         inkscape:connector-curvature="0" /></clipPath><clipPath
       clipPathUnits="userSpaceOnUse"
       id="clipPath414"><path
         d="M 0,0 576,0 576,432 0,432 0,0 z"
         id="path416"
         inkscape:connector-curvature="0" /></clipPath><clipPath
       clipPathUnits="userSpaceOnUse"
       id="clipPath430"><path
         d="M 0,0 576,0 576,432 0,432 0,0 z"
         id="path432"
         inkscape:connector-curvature="0" /></clipPath><clipPath
       clipPathUnits="userSpaceOnUse"
       id="clipPath446"><path
         d="M 0,0 576,0 576,432 0,432 0,0 z"
         id="path448"
         inkscape:connector-curvature="0" /></clipPath><clipPath
       clipPathUnits="userSpaceOnUse"
       id="clipPath462"><path
         d="M 0,0 576,0 576,432 0,432 0,0 z"
         id="path464"
         inkscape:connector-curvature="0" /></clipPath><clipPath
       clipPathUnits="userSpaceOnUse"
       id="clipPath478"><path
         d="M 0,0 576,0 576,432 0,432 0,0 z"
         id="path480"
         inkscape:connector-curvature="0" /></clipPath><clipPath
       clipPathUnits="userSpaceOnUse"
       id="clipPath494"><path
         d="M 0,0 576,0 576,432 0,432 0,0 z"
         id="path496"
         inkscape:connector-curvature="0" /></clipPath><clipPath
       clipPathUnits="userSpaceOnUse"
       id="clipPath510"><path
         d="M 0,0 576,0 576,432 0,432 0,0 z"
         id="path512"
         inkscape:connector-curvature="0" /></clipPath><clipPath
       clipPathUnits="userSpaceOnUse"
       id="clipPath526"><path
         d="M 0,0 576,0 576,432 0,432 0,0 z"
         id="path528"
         inkscape:connector-curvature="0" /></clipPath><clipPath
       clipPathUnits="userSpaceOnUse"
       id="clipPath554"><path
         d="m 72,388.801 446.398,0 0,-345.602 -446.398,0 0,345.602 z"
         id="path556"
         inkscape:connector-curvature="0" /></clipPath><clipPath
       clipPathUnits="userSpaceOnUse"
       id="clipPath562"><path
         d="M 0,0 576,0 576,432 0,432 0,0 z"
         id="path564"
         inkscape:connector-curvature="0" /></clipPath><clipPath
       clipPathUnits="userSpaceOnUse"
       id="clipPath590"><path
         d="m 72,388.801 446.398,0 0,-345.602 -446.398,0 0,345.602 z"
         id="path592"
         inkscape:connector-curvature="0" /></clipPath><clipPath
       clipPathUnits="userSpaceOnUse"
       id="clipPath598"><path
         d="M 0,0 576,0 576,432 0,432 0,0 z"
         id="path600"
         inkscape:connector-curvature="0" /></clipPath><clipPath
       clipPathUnits="userSpaceOnUse"
       id="clipPath626"><path
         d="m 72,388.801 446.398,0 0,-345.602 -446.398,0 0,345.602 z"
         id="path628"
         inkscape:connector-curvature="0" /></clipPath><clipPath
       clipPathUnits="userSpaceOnUse"
       id="clipPath634"><path
         d="M 0,0 576,0 576,432 0,432 0,0 z"
         id="path636"
         inkscape:connector-curvature="0" /></clipPath><clipPath
       clipPathUnits="userSpaceOnUse"
       id="clipPath784"><path
         d="m 72,388.801 446.398,0 0,-345.602 -446.398,0 0,345.602 z"
         id="path786"
         inkscape:connector-curvature="0" /></clipPath><clipPath
       clipPathUnits="userSpaceOnUse"
       id="clipPath792"><path
         d="M 0,0 576,0 576,432 0,432 0,0 z"
         id="path794"
         inkscape:connector-curvature="0" /></clipPath><clipPath
       clipPathUnits="userSpaceOnUse"
       id="clipPath820"><path
         d="m 34.871,51.035 17.664,0 0,-13.98 -17.664,0 0,13.98 z"
         id="path822"
         inkscape:connector-curvature="0" /></clipPath><clipPath
       clipPathUnits="userSpaceOnUse"
       id="clipPath828"><path
         d="M 0,0 576,0 576,432 0,432 0,0 z"
         id="path830"
         inkscape:connector-curvature="0" /></clipPath><clipPath
       clipPathUnits="userSpaceOnUse"
       id="clipPath844"><path
         d="m 72,388.801 446.398,0 0,-345.602 -446.398,0 0,345.602 z"
         id="path846"
         inkscape:connector-curvature="0" /></clipPath><clipPath
       clipPathUnits="userSpaceOnUse"
       id="clipPath852"><path
         d="M 0,0 576,0 576,432 0,432 0,0 z"
         id="path854"
         inkscape:connector-curvature="0" /></clipPath><clipPath
       clipPathUnits="userSpaceOnUse"
       id="clipPath878"><path
         d="m 42.512,116.863 17.664,0 0,-13.98 -17.664,0 0,13.98 z"
         id="path880"
         inkscape:connector-curvature="0" /></clipPath><clipPath
       clipPathUnits="userSpaceOnUse"
       id="clipPath886"><path
         d="M 0,0 576,0 576,432 0,432 0,0 z"
         id="path888"
         inkscape:connector-curvature="0" /></clipPath><clipPath
       clipPathUnits="userSpaceOnUse"
       id="clipPath902"><path
         d="m 72,388.801 446.398,0 0,-345.602 -446.398,0 0,345.602 z"
         id="path904"
         inkscape:connector-curvature="0" /></clipPath><clipPath
       clipPathUnits="userSpaceOnUse"
       id="clipPath910"><path
         d="M 0,0 576,0 576,432 0,432 0,0 z"
         id="path912"
         inkscape:connector-curvature="0" /></clipPath><clipPath
       clipPathUnits="userSpaceOnUse"
       id="clipPath936"><path
         d="m 42.512,182.691 17.664,0 0,-13.98 -17.664,0 0,13.98 z"
         id="path938"
         inkscape:connector-curvature="0" /></clipPath><clipPath
       clipPathUnits="userSpaceOnUse"
       id="clipPath944"><path
         d="M 0,0 576,0 576,432 0,432 0,0 z"
         id="path946"
         inkscape:connector-curvature="0" /></clipPath><clipPath
       clipPathUnits="userSpaceOnUse"
       id="clipPath960"><path
         d="m 72,388.801 446.398,0 0,-345.602 -446.398,0 0,345.602 z"
         id="path962"
         inkscape:connector-curvature="0" /></clipPath><clipPath
       clipPathUnits="userSpaceOnUse"
       id="clipPath968"><path
         d="M 0,0 576,0 576,432 0,432 0,0 z"
         id="path970"
         inkscape:connector-curvature="0" /></clipPath><clipPath
       clipPathUnits="userSpaceOnUse"
       id="clipPath994"><path
         d="m 42.512,248.52 17.664,0 0,-13.977 -17.664,0 0,13.977 z"
         id="path996"
         inkscape:connector-curvature="0" /></clipPath><clipPath
       clipPathUnits="userSpaceOnUse"
       id="clipPath1002"><path
         d="M 0,0 576,0 576,432 0,432 0,0 z"
         id="path1004"
         inkscape:connector-curvature="0" /></clipPath><clipPath
       clipPathUnits="userSpaceOnUse"
       id="clipPath1018"><path
         d="m 72,388.801 446.398,0 0,-345.602 -446.398,0 0,345.602 z"
         id="path1020"
         inkscape:connector-curvature="0" /></clipPath><clipPath
       clipPathUnits="userSpaceOnUse"
       id="clipPath1026"><path
         d="M 0,0 576,0 576,432 0,432 0,0 z"
         id="path1028"
         inkscape:connector-curvature="0" /></clipPath><clipPath
       clipPathUnits="userSpaceOnUse"
       id="clipPath1052"><path
         d="m 42.512,314.352 17.664,0 0,-13.98 -17.664,0 0,13.98 z"
         id="path1054"
         inkscape:connector-curvature="0" /></clipPath><clipPath
       clipPathUnits="userSpaceOnUse"
       id="clipPath1060"><path
         d="M 0,0 576,0 576,432 0,432 0,0 z"
         id="path1062"
         inkscape:connector-curvature="0" /></clipPath><clipPath
       clipPathUnits="userSpaceOnUse"
       id="clipPath1076"><path
         d="m 72,388.801 446.398,0 0,-345.602 -446.398,0 0,345.602 z"
         id="path1078"
         inkscape:connector-curvature="0" /></clipPath><clipPath
       clipPathUnits="userSpaceOnUse"
       id="clipPath1084"><path
         d="M 0,0 576,0 576,432 0,432 0,0 z"
         id="path1086"
         inkscape:connector-curvature="0" /></clipPath><linearGradient
       inkscape:collect="always"
       xlink:href="#linearGradient5755"
       id="linearGradient5761"
       x1="68.645866"
       y1="-373.80582"
       x2="249.85619"
       y2="-373.80582"
       gradientUnits="userSpaceOnUse"
       gradientTransform="translate(6.4067797,-1.8305085)" /><clipPath
       clipPathUnits="userSpaceOnUse"
       id="clipPath5857"><rect
         style="fill:#00007f;fill-opacity:1;fill-rule:nonzero;stroke:none"
         id="rect5859"
         width="276.86441"
         height="110.97458"
         x="76.652542"
         y="80.084747" /></clipPath><linearGradient
       inkscape:collect="always"
       xlink:href="#linearGradient5755"
       id="linearGradient5889"
       x1="239.8035"
       y1="-543.04474"
       x2="-55.105946"
       y2="-75.206276"
       gradientUnits="userSpaceOnUse"
       gradientTransform="translate(0.64718248,-17.584966)" /><clipPath
       clipPathUnits="userSpaceOnUse"
       id="clipPath4190"><rect
         style="fill:none;stroke:none"
         id="rect4192"
         width="229.83255"
         height="229.8336"
         x="-284.37585"
         y="-372.03424"
         transform="scale(-1,-1)"
         ry="0" /></clipPath></defs><sodipodi:namedview
     pagecolor="#ffffff"
     bordercolor="#666666"
     borderopacity="1"
     objecttolerance="10"
     gridtolerance="10"
     guidetolerance="10"
     inkscape:pageopacity="0"
     inkscape:pageshadow="2"
     inkscape:window-width="1920"
     inkscape:window-height="1137"
     id="namedview4"
     showgrid="false"
     fit-margin-top="0"
     fit-margin-left="0"
     fit-margin-right="0"
     fit-margin-bottom="0"
     inkscape:zoom="1.2361274"
     inkscape:cx="21.838354"
     inkscape:cy="-84.037169"
     inkscape:window-x="-8"
     inkscape:window-y="-8"
     inkscape:window-maximized="1"
     inkscape:current-layer="g5674"
     units="cm" /><g
     id="g10"
     inkscape:groupmode="layer"
     inkscape:label="filtbank_test"
     transform="matrix(1.25,0,0,-1.25,-58.4375,432.36048)"><g
   id="g5674"
   transform="matrix(0.59498868,0,0,0.59498868,18.087384,124.58664)"><rect
   ry="0"
   transform="scale(1,-1)"
   y="-367.34921"
   x="53.790493"
   height="53.068958"
   width="53.068962"
   id="rect4210"
   style="fill:#ffffff;fill-opacity:1;stroke:#7f7f7f;stroke-width:1.60000002;stroke-miterlimit:4;stroke-opacity:1;stroke-dasharray:none;stroke-dashoffset:0" /><g
   style="stroke-width:5.09321928;stroke-miterlimit:10;stroke-dasharray:none"
   clip-path="url(#clipPath4190)"
   transform="matrix(-0.2089052,0,0,0.2089052,115.59823,286.77801)"
   id="g5763"><g
     style="stroke-width:5.09321928;stroke-miterlimit:10;stroke-dasharray:none"
     id="g26"
     transform="translate(-26.542376,-4.5762733)"
     clip-path="none"><g
       style="stroke-width:5.09321928;stroke-miterlimit:10;stroke-dasharray:none"
       id="g28" /><g
       style="stroke-width:5.09321928;stroke-miterlimit:10;stroke-dasharray:none"
       id="g34"><g
         style="stroke-width:5.09321928;stroke-miterlimit:10;stroke-dasharray:none"
         clip-path="url(#clipPath30)"
         id="g36"><g
           style="stroke-width:5.09321928;stroke-miterlimit:10;stroke-dasharray:none"
           id="g38"><path
             d="m -1,10.879 7.828,16.656 8.297,18.09 7.258,16.316 6.449,15.02 5.805,14.055 5.273,13.347 4.836,12.832 4.465,12.485 4.141,12.273 3.867,12.195 3.625,12.231 3.414,12.387 3.222,12.668 3.051,13.082 2.903,13.66 2.082,10.734 2.011,11.258 1.942,11.902 1.883,12.688 1.82,13.664 1.766,14.859 1.714,16.336 1.664,17.981 2.676,30.136 0.52,4.305 0.515,3.129 0.508,2.012 0.508,1.144 0.504,0.578 0.496,0.266 0.984,0.148 4.676,0.016 1.774,-0.098 0.433,-0.144 0.43,-0.297 0.43,-0.563 0.425,-0.972 0.422,-1.547 0.418,-2.242 0.828,-6.645 1.219,-13.367 2.367,-27.043 1.903,-18.894 1.839,-15.961 1.786,-13.719 2.07,-14.235 2.328,-14.281 2.234,-12.383 2.457,-12.386 2.641,-12.196 2.805,-11.879 2.933,-11.503 3.285,-11.961 3.34,-11.344 3.598,-11.457 4,-11.992 4.312,-12.207 4.715,-12.657 5.16,-13.199 5.614,-13.73 6.297,-14.797 6.961,-15.778 7.941,-17.449 9.254,-19.769 L 202.426,-1"
             style="fill:none;stroke:#0000e2;stroke-width:5.09321928;stroke-linecap:square;stroke-linejoin:round;stroke-miterlimit:10;stroke-opacity:1;stroke-dasharray:none"
             id="path40"
             inkscape:connector-curvature="0" /></g></g></g></g><g
     style="stroke-width:5.09321928;stroke-miterlimit:10;stroke-dasharray:none"
     id="g42"
     transform="translate(-26.542376,-4.5762733)"
     clip-path="none"><g
       style="stroke-width:5.09321928;stroke-miterlimit:10;stroke-dasharray:none"
       id="g44" /><g
       style="stroke-width:5.09321928;stroke-miterlimit:10;stroke-dasharray:none"
       id="g50"><g
         style="stroke-width:5.09321928;stroke-miterlimit:10;stroke-dasharray:none"
         clip-path="url(#clipPath46)"
         id="g52"><g
           style="stroke-width:5.09321928;stroke-miterlimit:10;stroke-dasharray:none"
           id="g54"><path
             d="m 6.727,-1 8.398,17.645 8.941,19.195 7.743,17.101 6.828,15.582 6.109,14.461 5.527,13.621 5.047,13.012 4.641,12.574 4.297,12.289 4,12.133 3.742,12.098 3.516,12.18 3.312,12.375 3.137,12.695 2.973,13.16 2.277,10.969 2.187,11.469 2.11,12.086 2.035,12.847 1.965,13.801 1.902,14.992 1.84,16.473 1.785,18.265 3.824,41.68 0.817,4.598 0.402,1.289 0.402,0.801 0.399,0.464 0.789,0.375 1.164,0.098 5.84,-0.058 0.691,-0.211 0.34,-0.239 0.34,-0.398 0.34,-0.633 0.336,-0.941 0.664,-3.118 0.66,-4.945 0.976,-10.027 3.743,-41.793 1.781,-16.633 2.016,-16.445 1.949,-14.055 2.144,-13.867 2.328,-13.492 2.477,-13 2.609,-12.461 2.719,-11.907 3.02,-12.175 3.066,-11.465 3.293,-11.469 3.648,-11.883 3.93,-12.015 4.145,-11.946 4.582,-12.519 4.902,-12.742 5.48,-13.606 5.977,-14.242 6.676,-15.32 7.597,-16.875 8.7,-18.762 L 215.824,-1"
             style="fill:none;stroke:#0038ff;stroke-width:5.09321928;stroke-linecap:square;stroke-linejoin:round;stroke-miterlimit:10;stroke-opacity:1;stroke-dasharray:none"
             id="path56"
             inkscape:connector-curvature="0" /></g></g></g></g><g
     style="stroke-width:5.09321928;stroke-miterlimit:10;stroke-dasharray:none"
     id="g58"
     transform="translate(-26.542376,-4.5762733)"
     clip-path="none"><g
       style="stroke-width:5.09321928;stroke-miterlimit:10;stroke-dasharray:none"
       id="g60" /><g
       style="stroke-width:5.09321928;stroke-miterlimit:10;stroke-dasharray:none"
       id="g66"><g
         style="stroke-width:5.09321928;stroke-miterlimit:10;stroke-dasharray:none"
         clip-path="url(#clipPath62)"
         id="g68"><g
           style="stroke-width:5.09321928;stroke-miterlimit:10;stroke-dasharray:none"
           id="g70"><path
             d="m 20.121,-1 10.219,21.504 9.57,20.691 8.215,18.344 6.219,14.387 5.617,13.469 5.117,12.785 4.707,12.273 4.348,11.91 4.051,11.676 3.781,11.547 3.551,11.523 3.347,11.598 3.164,11.777 3,12.063 2.852,12.465 2.719,13.008 2.597,13.714 2.078,12.118 2.004,12.894 1.942,13.867 1.875,15.082 1.82,16.594 1.762,18.379 3.371,37.371 0.652,4.496 0.645,2.68 0.636,1.316 0.629,0.543 0.625,0.188 1.532,0.07 5.468,-0.09 0.547,-0.191 0.543,-0.465 0.539,-0.984 0.532,-1.817 0.527,-2.914 0.523,-4.074 0.774,-7.789 4.441,-48.93 1.871,-16.762 1.813,-14.332 1.972,-13.921 2.118,-13.399 2.242,-12.812 2.351,-12.223 2.629,-12.469 2.688,-11.715 2.906,-11.683 3.082,-11.504 3.375,-11.738 3.613,-11.739 3.926,-11.98 4.164,-11.996 4.567,-12.457 4.961,-12.875 5.421,-13.453 5.989,-14.25 6.726,-15.43 7.637,-16.949 8.777,-18.918 L 229.223,-1"
             style="fill:none;stroke:#007fff;stroke-width:5.09321928;stroke-linecap:square;stroke-linejoin:round;stroke-miterlimit:10;stroke-opacity:1;stroke-dasharray:none"
             id="path72"
             inkscape:connector-curvature="0" /></g></g></g></g><g
     style="stroke-width:5.09321928;stroke-miterlimit:10;stroke-dasharray:none"
     id="g74"
     transform="translate(-26.542376,-4.5762733)"
     clip-path="none"><g
       style="stroke-width:5.09321928;stroke-miterlimit:10;stroke-dasharray:none"
       id="g76" /><g
       style="stroke-width:5.09321928;stroke-miterlimit:10;stroke-dasharray:none"
       id="g82"><g
         style="stroke-width:5.09321928;stroke-miterlimit:10;stroke-dasharray:none"
         clip-path="url(#clipPath78)"
         id="g84"><g
           style="stroke-width:5.09321928;stroke-miterlimit:10;stroke-dasharray:none"
           id="g86"><path
             d="m 33.52,-1 10.054,21.16 8.77,18.918 7.617,16.918 6.73,15.461 6.028,14.383 5.465,13.586 4.988,13.004 4.598,12.597 4.257,12.34 3.965,12.211 3.711,12.203 3.492,12.313 2.887,10.961 2.754,11.226 2.629,11.59 2.512,12.063 2.41,12.664 2.312,13.433 2.223,14.403 1.844,13.312 1.781,14.434 1.734,15.812 1.68,17.434 3.742,40.613 0.516,3.129 0.511,2.012 0.504,1.144 0.504,0.578 0.496,0.266 0.739,0.133 2.398,0.031 4.297,-0.098 0.648,-0.269 0.43,-0.414 0.43,-0.746 0.422,-1.239 0.418,-1.882 0.625,-4.204 0.824,-7.828 1.808,-20.933 1.946,-21.328 1.699,-16.274 1.828,-15.461 1.949,-14.578 2.051,-13.719 2.145,-12.906 2.382,-12.965 2.582,-12.785 2.618,-11.844 2.91,-12.125 3.027,-11.66 3.242,-11.609 3.532,-11.793 3.757,-11.766 4.028,-11.886 4.418,-12.332 4.793,-12.692 5.207,-13.164 5.773,-13.977 6.399,-14.898 7.226,-16.254 8.242,-17.973 9.598,-20.382 3.992,-8.348"
             style="fill:none;stroke:#00d4ff;stroke-width:5.09321928;stroke-linecap:square;stroke-linejoin:round;stroke-miterlimit:10;stroke-opacity:1;stroke-dasharray:none"
             id="path88"
             inkscape:connector-curvature="0" /></g></g></g></g><g
     style="stroke-width:5.09321928;stroke-miterlimit:10;stroke-dasharray:none"
     id="g90"
     transform="translate(-26.542376,-4.5762733)"
     clip-path="none"><g
       style="stroke-width:5.09321928;stroke-miterlimit:10;stroke-dasharray:none"
       id="g92" /><g
       style="stroke-width:5.09321928;stroke-miterlimit:10;stroke-dasharray:none"
       id="g98"><g
         style="stroke-width:5.09321928;stroke-miterlimit:10;stroke-dasharray:none"
         clip-path="url(#clipPath94)"
         id="g100"><g
           style="stroke-width:5.09321928;stroke-miterlimit:10;stroke-dasharray:none"
           id="g102"><path
             d="m 46.918,-1 10.301,21.688 8.672,18.718 7.543,16.758 6.671,15.332 5.981,14.27 5.426,13.488 4.957,12.906 4.57,12.508 4.234,12.246 3.946,12.117 3.695,12.106 3.473,12.207 2.957,11.172 2.812,11.445 2.684,11.82 2.566,12.309 2.457,12.941 2.098,12.172 2.027,12.961 1.957,13.934 1.895,15.156 1.832,16.687 1.777,18.497 3.606,39.265 0.613,3.719 0.609,2.168 0.399,0.801 0.597,0.609 0.59,0.23 0.973,0.094 5.332,-0.004 1.047,-0.125 0.515,-0.238 0.512,-0.535 0.336,-0.633 0.504,-1.555 0.5,-2.504 0.656,-4.945 0.817,-8.219 4.504,-49.449 1.765,-15.773 1.856,-14.649 2.066,-14.527 2.129,-13.375 2.305,-13.07 2.457,-12.645 2.59,-12.16 2.804,-12.109 2.992,-11.895 3.141,-11.582 3.352,-11.531 3.609,-11.621 3.891,-11.782 4.254,-12.171 4.601,-12.469 4.977,-12.84 5.465,-13.496 6.062,-14.367 6.82,-15.575 7.723,-17.082 8.898,-19.125 L 256.012,-1"
             style="fill:none;stroke:#0efff0;stroke-width:5.09321928;stroke-linecap:square;stroke-linejoin:round;stroke-miterlimit:10;stroke-opacity:1;stroke-dasharray:none"
             id="path104"
             inkscape:connector-curvature="0" /></g></g></g></g><g
     style="stroke-width:5.09321928;stroke-miterlimit:10;stroke-dasharray:none"
     id="g106"
     transform="translate(-26.542376,-4.5762733)"
     clip-path="none"><g
       style="stroke-width:5.09321928;stroke-miterlimit:10;stroke-dasharray:none"
       id="g108" /><g
       style="stroke-width:5.09321928;stroke-miterlimit:10;stroke-dasharray:none"
       id="g114"><g
         style="stroke-width:5.09321928;stroke-miterlimit:10;stroke-dasharray:none"
         clip-path="url(#clipPath110)"
         id="g116"><g
           style="stroke-width:5.09321928;stroke-miterlimit:10;stroke-dasharray:none"
           id="g118"><path
             d="m 60.316,-1 10.215,21.504 8.938,19.301 7.746,17.23 6.828,15.731 6.109,14.632 5.528,13.821 5.043,13.242 4.644,12.84 3.977,11.633 3.722,11.531 3.497,11.531 3.3,11.637 3.121,11.836 2.961,12.152 2.586,11.52 2.481,11.992 2.375,12.601 2.281,13.368 2,12.984 1.934,13.977 1.871,15.218 1.812,16.762 1.758,18.562 3.359,36.735 0.653,4.023 0.48,1.852 0.481,1.082 0.472,0.57 0.629,0.328 0.926,0.121 3.715,0.016 2.672,-0.09 0.547,-0.191 0.406,-0.313 0.402,-0.562 0.403,-0.938 0.398,-1.453 0.527,-2.914 0.653,-5.254 0.902,-9.48 3.711,-41.399 1.769,-16.48 1.829,-15.016 1.992,-14.512 2.136,-13.89 2.262,-13.227 2.371,-12.566 2.555,-12.356 2.715,-12.019 2.93,-11.957 3.109,-11.738 3.328,-11.688 3.574,-11.726 3.828,-11.805 4.153,-12.059 4.504,-12.386 4.863,-12.723 5.355,-13.379 5.903,-14.141 6.605,-15.23 7.438,-16.59 8.554,-18.523 10.02,-21.149 1.234,-2.578"
             style="fill:none;stroke:#46ffb7;stroke-width:5.09321928;stroke-linecap:square;stroke-linejoin:round;stroke-miterlimit:10;stroke-opacity:1;stroke-dasharray:none"
             id="path120"
             inkscape:connector-curvature="0" /></g></g></g></g><g
     style="stroke-width:5.09321928;stroke-miterlimit:10;stroke-dasharray:none"
     id="g122"
     transform="translate(-26.542376,-4.5762733)"
     clip-path="none"><g
       style="stroke-width:5.09321928;stroke-miterlimit:10;stroke-dasharray:none"
       id="g124" /><g
       style="stroke-width:5.09321928;stroke-miterlimit:10;stroke-dasharray:none"
       id="g130"><g
         style="stroke-width:5.09321928;stroke-miterlimit:10;stroke-dasharray:none"
         clip-path="url(#clipPath126)"
         id="g132"><g
           style="stroke-width:5.09321928;stroke-miterlimit:10;stroke-dasharray:none"
           id="g134"><path
             d="m 73.711,-1 10.644,22.414 9.192,19.875 7.492,16.711 6.633,15.309 5.953,14.269 5.398,13.504 4.938,12.941 4.551,12.559 4.218,12.316 3.93,12.204 3.461,11.445 3.266,11.547 3.09,11.754 2.933,12.066 2.61,11.649 2.5,12.14 2.394,12.766 2.141,12.554 2.062,13.411 1.992,14.468 1.778,14.539 1.726,15.942 1.676,17.57 3.606,39.086 0.644,3.731 0.508,1.765 0.508,0.977 0.5,0.48 0.621,0.242 0.976,0.09 5.328,-0.004 1.098,-0.144 0.539,-0.289 0.43,-0.485 0.426,-0.855 0.422,-1.387 0.523,-2.691 0.625,-4.739 0.816,-8.304 4.598,-50.281 1.758,-15.594 1.883,-14.774 1.996,-13.941 2.176,-13.629 2.332,-13.176 2.472,-12.648 2.586,-12.102 2.754,-11.832 2.957,-11.738 3.188,-11.734 3.371,-11.575 3.629,-11.664 3.933,-11.875 4.254,-12.144 4.59,-12.406 5.019,-12.942 5.516,-13.582 6.102,-14.434 6.859,-15.648 7.773,-17.172 8.989,-19.293 L 282.801,-1"
             style="fill:none;stroke:#8dff70;stroke-width:5.09321928;stroke-linecap:square;stroke-linejoin:round;stroke-miterlimit:10;stroke-opacity:1;stroke-dasharray:none"
             id="path136"
             inkscape:connector-curvature="0" /></g></g></g></g><g
     style="stroke-width:5.09321928;stroke-miterlimit:10;stroke-dasharray:none"
     id="g138"
     transform="translate(-26.542376,-4.5762733)"
     clip-path="none"><g
       style="stroke-width:5.09321928;stroke-miterlimit:10;stroke-dasharray:none"
       id="g140" /><g
       style="stroke-width:5.09321928;stroke-miterlimit:10;stroke-dasharray:none"
       id="g146"><g
         style="stroke-width:5.09321928;stroke-miterlimit:10;stroke-dasharray:none"
         clip-path="url(#clipPath142)"
         id="g148"><g
           style="stroke-width:5.09321928;stroke-miterlimit:10;stroke-dasharray:none"
           id="g150"><path
             d="m 87.109,-1 10.305,21.688 9.07,19.597 7.844,17.473 6.906,15.941 5.891,14.137 5.348,13.387 4.898,12.84 4.516,12.457 4.187,12.218 3.906,12.11 3.481,11.504 3.285,11.609 3.109,11.812 2.797,11.481 2.672,11.867 2.551,12.375 2.313,12.277 2.222,13.004 2.02,13.071 1.949,14.074 1.883,15.328 1.715,15.789 1.664,17.399 3.605,39.265 0.613,3.719 0.508,1.898 0.504,1.071 0.496,0.543 0.59,0.273 0.879,0.109 3.469,0.016 2.929,-0.094 0.602,-0.226 0.426,-0.367 0.426,-0.672 0.417,-1.125 0.418,-1.739 0.5,-3.023 0.653,-5.578 0.972,-10.516 3.2,-35.98 1.793,-17.09 1.808,-15.176 1.965,-14.59 2.098,-13.914 2.218,-13.215 2.383,-12.843 2.524,-12.387 2.703,-12.133 2.848,-11.785 3.07,-11.754 3.25,-11.578 3.488,-11.598 3.758,-11.722 4.043,-11.891 4.402,-12.254 4.77,-12.613 5.246,-13.235 5.762,-13.929 6.425,-14.946 7.258,-16.3 L 282.945,27 292.617,6.469 296.191,-1"
             style="fill:none;stroke:#c6ff38;stroke-width:5.09321928;stroke-linecap:square;stroke-linejoin:round;stroke-miterlimit:10;stroke-opacity:1;stroke-dasharray:none"
             id="path152"
             inkscape:connector-curvature="0" /></g></g></g></g><g
     style="stroke-width:5.09321928;stroke-miterlimit:10;stroke-dasharray:none"
     id="g154"
     transform="translate(-26.542376,-4.5762733)"
     clip-path="none"><g
       style="stroke-width:5.09321928;stroke-miterlimit:10;stroke-dasharray:none"
       id="g156" /><g
       style="stroke-width:5.09321928;stroke-miterlimit:10;stroke-dasharray:none"
       id="g162"><g
         style="stroke-width:5.09321928;stroke-miterlimit:10;stroke-dasharray:none"
         clip-path="url(#clipPath158)"
         id="g164"><g
           style="stroke-width:5.09321928;stroke-miterlimit:10;stroke-dasharray:none"
           id="g166"><path
             d="m 100.508,-1 10.586,22.297 8.886,19.207 7.704,17.16 6.8,15.684 6.082,14.593 5.508,13.797 4.844,12.723 4.469,12.352 4.148,12.121 3.871,12.011 3.492,11.535 3.29,11.641 3.113,11.848 2.836,11.652 2.703,12.055 2.473,12.015 2.371,12.633 2.175,12.778 2.098,13.66 1.93,14.031 1.777,14.488 1.723,15.883 1.672,17.504 3.617,39.277 0.57,3.418 0.563,2.078 0.476,0.981 0.477,0.508 0.547,0.265 0.851,0.118 2.918,0.019 3.613,-0.105 0.614,-0.258 0.472,-0.473 0.403,-0.734 0.398,-1.18 0.465,-2.109 0.523,-3.5 0.715,-6.532 1.215,-13.711 2.41,-27.238 1.731,-16.957 1.797,-15.469 1.906,-14.554 2.058,-14.016 2.196,-13.402 2.312,-12.762 2.508,-12.582 2.625,-12.066 2.816,-11.887 3.016,-11.754 3.211,-11.641 3.445,-11.644 3.696,-11.711 3.988,-11.887 4.324,-12.187 4.684,-12.528 5.109,-13.031 5.633,-13.754 6.266,-14.695 7.035,-15.934 8.027,-17.613 9.32,-19.91 L 309.574,-1"
             style="fill:none;stroke:#f0ff0e;stroke-width:5.09321928;stroke-linecap:square;stroke-linejoin:round;stroke-miterlimit:10;stroke-opacity:1;stroke-dasharray:none"
             id="path168"
             inkscape:connector-curvature="0" /></g></g></g></g><g
     style="stroke-width:5.09321928;stroke-miterlimit:10;stroke-dasharray:none"
     id="g170"
     transform="translate(-26.542376,-4.5762733)"
     clip-path="none"><g
       style="stroke-width:5.09321928;stroke-miterlimit:10;stroke-dasharray:none"
       id="g172" /><g
       style="stroke-width:5.09321928;stroke-miterlimit:10;stroke-dasharray:none"
       id="g178"><g
         style="stroke-width:5.09321928;stroke-miterlimit:10;stroke-dasharray:none"
         clip-path="url(#clipPath174)"
         id="g180"><g
           style="stroke-width:5.09321928;stroke-miterlimit:10;stroke-dasharray:none"
           id="g182"><path
             d="m 113.902,-1 10.352,21.793 8.98,19.398 7.778,17.313 6.851,15.809 5.953,14.269 5.399,13.5 4.937,12.945 4.551,12.559 4.09,11.93 3.824,11.824 3.586,11.824 3.27,11.543 3.097,11.746 2.84,11.645 2.711,12.043 2.504,12.121 2.398,12.738 2.223,13.027 2.063,13.407 1.918,13.89 1.851,15.117 1.731,15.942 1.675,17.574 3.602,39.082 0.582,3.438 0.508,1.886 0.508,1.059 0.5,0.527 0.558,0.258 0.86,0.109 3.144,0.016 3.359,-0.109 0.598,-0.258 0.43,-0.414 0.426,-0.746 0.421,-1.239 0.473,-2.171 0.524,-3.5 0.718,-6.629 1.215,-13.766 2.406,-27.137 1.754,-17.136 1.836,-15.766 1.91,-14.523 2.063,-13.973 2.195,-13.348 2.348,-12.914 2.484,-12.41 2.664,-12.195 2.825,-11.871 3.015,-11.719 3.235,-11.676 3.464,-11.68 3.707,-11.699 4.012,-11.933 4.34,-12.196 4.711,-12.566 5.148,-13.102 5.664,-13.801 6.313,-14.781 7.098,-16.047 8.101,-17.754 9.449,-20.156 L 322.953,-1"
             style="fill:none;stroke:#ffc600;stroke-width:5.09321928;stroke-linecap:square;stroke-linejoin:round;stroke-miterlimit:10;stroke-opacity:1;stroke-dasharray:none"
             id="path184"
             inkscape:connector-curvature="0" /></g></g></g></g><g
     style="stroke-width:5.09321928;stroke-miterlimit:10;stroke-dasharray:none"
     id="g186"
     transform="translate(-26.542376,-4.5762733)"
     clip-path="none"><g
       style="stroke-width:5.09321928;stroke-miterlimit:10;stroke-dasharray:none"
       id="g188" /><g
       style="stroke-width:5.09321928;stroke-miterlimit:10;stroke-dasharray:none"
       id="g194"><g
         style="stroke-width:5.09321928;stroke-miterlimit:10;stroke-dasharray:none"
         clip-path="url(#clipPath190)"
         id="g196"><g
           style="stroke-width:5.09321928;stroke-miterlimit:10;stroke-dasharray:none"
           id="g198"><path
             d="m 127.301,-1 10.539,22.188 9.035,19.539 7.645,17.035 6.753,15.574 6.047,14.504 5.473,13.711 4.887,12.828 4.508,12.453 4.179,12.215 3.805,11.801 3.57,11.808 3.281,11.614 3.106,11.82 2.871,11.816 2.66,11.891 2.547,12.406 2.371,12.688 2.219,13.078 2.07,13.578 1.942,14.215 1.82,15.004 1.711,15.941 1.711,18.172 3.336,36.441 0.617,3.856 0.504,1.996 0.504,1.141 0.5,0.582 0.543,0.285 0.777,0.129 2.238,0.023 4.399,-0.102 0.601,-0.246 0.469,-0.445 0.426,-0.75 0.418,-1.238 0.457,-2.098 0.539,-3.605 0.695,-6.375 1.207,-13.633 2.453,-27.692 1.766,-17.23 1.82,-15.609 1.942,-14.707 2.043,-13.825 2.203,-13.367 2.336,-12.832 2.484,-12.41 2.668,-12.184 2.82,-11.851 3.02,-11.742 3.238,-11.684 3.457,-11.637 3.711,-11.718 4.012,-11.918 4.328,-12.164 4.715,-12.582 5.148,-13.098 5.684,-13.848 6.32,-14.801 7.114,-16.078 8.136,-17.84 L 331.215,9.715 336.32,-1"
             style="fill:none;stroke:#ff7f00;stroke-width:5.09321928;stroke-linecap:square;stroke-linejoin:round;stroke-miterlimit:10;stroke-opacity:1;stroke-dasharray:none"
             id="path200"
             inkscape:connector-curvature="0" /></g></g></g></g><g
     style="stroke-width:5.09321928;stroke-miterlimit:10;stroke-dasharray:none"
     id="g202"
     transform="translate(-26.542376,-4.5762733)"
     clip-path="none"><g
       style="stroke-width:5.09321928;stroke-miterlimit:10;stroke-dasharray:none"
       id="g204" /><g
       style="stroke-width:5.09321928;stroke-miterlimit:10;stroke-dasharray:none"
       id="g210"><g
         style="stroke-width:5.09321928;stroke-miterlimit:10;stroke-dasharray:none"
         clip-path="url(#clipPath206)"
         id="g212"><g
           style="stroke-width:5.09321928;stroke-miterlimit:10;stroke-dasharray:none"
           id="g214"><path
             d="m 140.695,-1 10.594,22.301 9.043,19.554 7.684,17.129 6.781,15.661 6.074,14.574 5.395,13.527 4.937,12.969 4.461,12.348 4.145,12.117 3.793,11.769 3.558,11.778 3.285,11.64 3.051,11.606 2.895,11.91 2.699,12.062 2.523,12.313 2.367,12.66 2.227,13.129 2.043,13.391 1.926,14.089 1.82,14.957 1.719,16.004 1.711,18.117 3.402,37.043 0.61,3.715 0.523,1.969 0.477,1.027 0.476,0.539 0.547,0.286 0.777,0.125 2.227,0.023 4.418,-0.105 0.613,-0.258 0.442,-0.426 0.402,-0.703 0.433,-1.258 0.461,-2.109 0.528,-3.5 0.679,-6.2 1.153,-12.925 2.566,-28.989 1.758,-17.132 1.82,-15.582 1.934,-14.625 2.055,-13.883 2.187,-13.289 2.332,-12.793 2.5,-12.489 2.668,-12.179 2.828,-11.883 3.024,-11.738 3.242,-11.684 3.465,-11.668 3.715,-11.723 4.003,-11.882 4.332,-12.172 4.715,-12.574 5.157,-13.122 5.687,-13.859 6.344,-14.852 7.137,-16.144 L 335.25,29.629 344.867,9.09 349.668,-1"
             style="fill:none;stroke:#ff5400;stroke-width:5.09321928;stroke-linecap:square;stroke-linejoin:round;stroke-miterlimit:10;stroke-opacity:1;stroke-dasharray:none"
             id="path216"
             inkscape:connector-curvature="0" /></g></g></g></g><g
     style="stroke-width:5.09321928;stroke-miterlimit:10;stroke-dasharray:none"
     id="g218"
     transform="translate(-26.542376,-4.5762733)"
     clip-path="none"><g
       style="stroke-width:5.09321928;stroke-miterlimit:10;stroke-dasharray:none"
       id="g220" /><g
       style="stroke-width:5.09321928;stroke-miterlimit:10;stroke-dasharray:none"
       id="g226"><g
         style="stroke-width:5.09321928;stroke-miterlimit:10;stroke-dasharray:none"
         clip-path="url(#clipPath222)"
         id="g228"><g
           style="stroke-width:5.09321928;stroke-miterlimit:10;stroke-dasharray:none"
           id="g230"><path
             d="m 154.094,-1 10.648,22.426 8.938,19.324 7.742,17.262 6.734,15.539 6.032,14.469 5.378,13.484 4.926,12.93 4.473,12.351 4.148,12.121 3.817,11.821 3.519,11.636 3.321,11.739 3.093,11.753 2.883,11.86 2.707,12.066 2.496,12.149 2.352,12.543 2.219,13.054 2.058,13.446 1.953,14.222 1.813,14.883 1.726,16.004 1.707,18.027 3.469,37.696 0.613,3.672 0.512,1.886 0.473,1.008 0.472,0.531 0.528,0.278 0.769,0.125 2.129,0.027 4.559,-0.109 0.594,-0.258 0.457,-0.449 0.425,-0.774 0.422,-1.273 0.473,-2.219 0.547,-3.77 0.722,-6.746 1.289,-14.714 2.305,-25.911 1.75,-17.097 1.813,-15.559 1.933,-14.68 2.063,-13.949 2.191,-13.332 2.332,-12.801 2.481,-12.41 2.648,-12.121 2.824,-11.879 3.016,-11.734 3.234,-11.688 3.453,-11.64 3.719,-11.758 4.004,-11.906 4.328,-12.184 4.715,-12.586 5.16,-13.148 5.688,-13.867 6.343,-14.879 7.157,-16.211 8.23,-18.078 9.746,-20.848 4.629,-9.754"
             style="fill:none;stroke:#ff0e00;stroke-width:5.09321928;stroke-linecap:square;stroke-linejoin:round;stroke-miterlimit:10;stroke-opacity:1;stroke-dasharray:none"
             id="path232"
             inkscape:connector-curvature="0" /></g></g></g></g><g
     style="stroke-width:5.09321928;stroke-miterlimit:10;stroke-dasharray:none"
     id="g234"
     transform="translate(-26.542376,-4.5762733)"
     clip-path="none"><g
       style="stroke-width:5.09321928;stroke-miterlimit:10;stroke-dasharray:none"
       id="g236" /><g
       style="stroke-width:5.09321928;stroke-miterlimit:10;stroke-dasharray:none"
       id="g242"><g
         style="stroke-width:5.09321928;stroke-miterlimit:10;stroke-dasharray:none"
         clip-path="url(#clipPath238)"
         id="g244"><g
           style="stroke-width:5.09321928;stroke-miterlimit:10;stroke-dasharray:none"
           id="g246"><path
             d="m 167.488,-1 10.66,22.449 9.02,19.508 7.719,17.211 6.734,15.547 6.031,14.48 5.399,13.532 4.879,12.82 4.504,12.449 4.125,12.063 3.804,11.8 3.528,11.657 3.281,11.609 3.07,11.66 2.871,11.805 2.703,12.047 2.516,12.218 2.375,12.672 2.219,13.051 2.074,13.551 1.941,14.176 1.825,14.957 1.707,15.89 1.691,17.809 3.492,37.934 0.614,3.648 0.531,1.918 0.476,0.969 0.473,0.504 0.543,0.261 0.805,0.118 2.511,0.019 4.075,-0.109 0.601,-0.25 0.449,-0.434 0.422,-0.75 0.418,-1.238 0.461,-2.098 0.535,-3.605 0.696,-6.375 1.168,-13.164 2.511,-28.364 1.766,-17.203 1.82,-15.586 1.942,-14.687 2.058,-13.914 2.199,-13.344 2.336,-12.813 2.5,-12.46 2.664,-12.165 2.833,-11.882 3.019,-11.723 3.234,-11.668 3.465,-11.656 3.719,-11.739 4.016,-11.937 4.343,-12.199 4.723,-12.614 5.18,-13.183 5.722,-13.957 6.395,-14.988 7.238,-16.403 8.387,-18.437 L 372.578,6.801 376.27,-1"
             style="fill:none;stroke:#d40000;stroke-width:5.09321928;stroke-linecap:square;stroke-linejoin:round;stroke-miterlimit:10;stroke-opacity:1;stroke-dasharray:none"
             id="path248"
             inkscape:connector-curvature="0" /></g></g></g></g><g
     style="stroke-width:5.09321928;stroke-miterlimit:10;stroke-dasharray:none"
     id="g250"
     transform="translate(-26.542376,-4.5762733)"
     clip-path="none"><g
       style="stroke-width:5.09321928;stroke-miterlimit:10;stroke-dasharray:none"
       id="g252" /><g
       style="stroke-width:5.09321928;stroke-miterlimit:10;stroke-dasharray:none"
       id="g258"><g
         style="stroke-width:5.09321928;stroke-miterlimit:10;stroke-dasharray:none"
         clip-path="url(#clipPath254)"
         id="g260"><g
           style="stroke-width:5.09321928;stroke-miterlimit:10;stroke-dasharray:none"
           id="g262"><path
             d="m 180.879,-1 10.691,22.52 8.953,19.355 7.754,17.289 6.774,15.645 6.012,14.429 5.394,13.528 4.891,12.843 4.507,12.473 4.145,12.113 3.832,11.891 3.52,11.656 3.289,11.641 3.078,11.73 2.863,11.782 2.672,11.929 2.527,12.305 2.367,12.652 2.2,12.961 2.07,13.535 1.926,14.075 1.82,14.937 1.719,15.981 1.691,17.855 3.469,37.672 0.609,3.664 0.52,1.926 0.48,1.004 0.473,0.523 0.547,0.277 0.797,0.118 2.351,0.023 4.27,-0.109 0.598,-0.254 0.457,-0.449 0.421,-0.758 0.414,-1.239 0.465,-2.14 0.539,-3.668 0.7,-6.442 1.195,-13.546 2.457,-27.719 1.762,-17.156 1.82,-15.606 1.93,-14.644 2.054,-13.899 2.192,-13.301 2.344,-12.875 2.488,-12.433 2.656,-12.145 2.832,-11.898 3.024,-11.758 3.23,-11.668 3.461,-11.664 3.726,-11.773 4.012,-11.93 4.348,-12.238 4.734,-12.653 5.196,-13.242 5.742,-14.027 6.437,-15.118 7.328,-16.64 8.575,-18.906 L 386.809,4.676 389.477,-1"
             style="fill:none;stroke:#8d0000;stroke-width:5.09321928;stroke-linecap:square;stroke-linejoin:round;stroke-miterlimit:10;stroke-opacity:1;stroke-dasharray:none"
             id="path264"
             inkscape:connector-curvature="0" /></g></g></g></g></g><text
   transform="scale(1,-1)"
   sodipodi:linespacing="125%"
   id="text5865"
   y="-330.19986"
   x="113.18468"
   style="font-size:32px;font-style:normal;font-variant:normal;font-weight:bold;font-stretch:normal;line-height:125%;letter-spacing:0px;word-spacing:0px;fill:#696969;fill-opacity:1;stroke:none;font-family:Open Sans;-inkscape-font-specification:Open Sans Bold"
   xml:space="preserve"><tspan
     dx="-1.8370997e-008"
     style="font-size:25.60000038px;font-style:normal;font-variant:normal;font-weight:bold;font-stretch:normal;letter-spacing:0px;fill:#696969;fill-opacity:1;stroke:none;font-family:Open Sans;-inkscape-font-specification:Open Sans Bold"
     y="-330.19986"
     x="113.18468"
     id="tspan5867"
     sodipodi:role="line">PyFilterbank</tspan></text>

</g>
</g></svg>